<svg width="235" height="54" viewBox="0 0 235 54" fill="none" xmlns="http://www.w3.org/2000/svg">
<path d="M9.67032 37.3215C9.67032 38.6409 9.2179 39.7638 8.31308 40.6621C7.40825 41.5604 6.29136 42.0095 4.94826 42.0095C4.29792 42.0095 3.67585 41.8832 3.08206 41.6306C2.48827 41.3779 1.96517 41.0551 1.49862 40.634C1.03207 40.227 0.678619 39.7217 0.409999 39.1602C0.141379 38.5848 0 37.9672 0 37.3215V16.5062C0 14.3026 0.438274 12.2113 1.31482 10.2603C2.19137 8.29523 3.37896 6.59689 4.89171 5.13715C6.4186 3.67741 8.1717 2.51243 10.1793 1.65624C12.1869 0.800048 14.2934 0.37897 16.5272 0.37897C18.8458 0.37897 21.0089 0.814083 23.0448 1.69835C25.0806 2.58261 26.862 3.7897 28.403 5.31962C29.944 3.7897 31.7537 2.58261 33.8178 1.69835C35.882 0.814083 38.0733 0.37897 40.3778 0.37897C42.6257 0.37897 44.7464 0.786012 46.6974 1.61413C48.6626 2.44225 50.3733 3.57916 51.8578 5.01083C53.3423 6.45653 54.5298 8.14084 55.4205 10.0497C56.3112 11.9586 56.806 14.0079 56.8909 16.1975C56.8909 16.2536 56.8909 16.3238 56.9191 16.394C56.9333 16.4641 56.9474 16.5343 56.9474 16.5905V37.3215C56.9474 37.9672 56.8202 38.5848 56.5657 39.1602C56.3112 39.7357 55.9719 40.227 55.5478 40.634C55.1236 41.041 54.6147 41.3779 54.0633 41.6306C53.4978 41.8832 52.8898 42.0095 52.2395 42.0095C51.5609 42.0095 50.9247 41.8832 50.3309 41.6306C49.7371 41.3779 49.214 41.0551 48.7757 40.634C48.3374 40.227 47.9699 39.7217 47.7012 39.1602C47.4326 38.5848 47.3054 37.9812 47.3054 37.3215V16.7308V16.6045V16.4782C47.2488 15.5378 47.0368 14.6675 46.655 13.8675C46.2874 13.0674 45.7785 12.3937 45.1423 11.8182C44.5061 11.2428 43.7709 10.7936 42.9368 10.4708C42.1026 10.148 41.2261 9.97954 40.3071 9.97954C39.3599 9.97954 38.4551 10.162 37.5926 10.5129C36.7302 10.8638 35.9809 11.341 35.3447 11.9446C34.7085 12.5481 34.1996 13.2639 33.832 14.0921C33.4644 14.9202 33.2806 15.7904 33.2806 16.7028V37.3215C33.2806 38.6409 32.8282 39.7638 31.9234 40.6621C31.0185 41.5604 29.9016 42.0095 28.5585 42.0095C27.9082 42.0095 27.2861 41.8832 26.6923 41.6306C26.0985 41.3779 25.5754 41.0551 25.1089 40.634C24.6423 40.227 24.2889 39.7217 24.0203 39.1602C23.7517 38.5848 23.6244 37.9812 23.6244 37.3215V16.6466V16.5203C23.5961 15.5799 23.3982 14.6956 23.0165 13.8956C22.6489 13.0815 22.1541 12.3937 21.532 11.8182C20.9099 11.2428 20.1748 10.7936 19.3548 10.4708C18.5206 10.148 17.6299 9.97954 16.6827 9.97954C15.7355 9.97954 14.8306 10.148 13.9965 10.4848C13.1482 10.8217 12.4131 11.2989 11.7769 11.9025C11.1407 12.506 10.6317 13.2078 10.2641 14.0079C9.89652 14.8079 9.71273 15.6641 9.71273 16.5764V16.6185V37.3215H9.67032ZM62.1643 26.8648C62.1643 24.7173 62.5743 22.6961 63.4084 20.8153C64.2426 18.9345 65.3595 17.2923 66.7874 15.8746C68.2153 14.457 69.8695 13.3482 71.7639 12.5341C73.6584 11.72 75.6801 11.313 77.8149 11.313C79.978 11.313 82.0139 11.72 83.9084 12.5341C85.8029 13.3482 87.457 14.457 88.8708 15.8746C90.2846 17.2923 91.4015 18.9345 92.2215 20.8153C93.0415 22.6961 93.4514 24.7032 93.4514 26.8648C93.4514 28.9982 93.0415 31.0054 92.2215 32.8862C91.4015 34.781 90.2846 36.4232 88.8708 37.8409C87.457 39.2585 85.8029 40.3673 83.9084 41.1814C82.0139 41.9955 79.9922 42.4025 77.8149 42.4025C75.666 42.4025 73.6584 41.9955 71.7639 41.1814C69.8695 40.3673 68.2153 39.2585 66.7874 37.8409C65.3595 36.4232 64.2426 34.781 63.4084 32.8862C62.5743 30.9913 62.1643 28.9842 62.1643 26.8648ZM69.2898 26.8648C69.2898 28.0157 69.516 29.1105 69.9684 30.1351C70.4208 31.1738 71.0288 32.0721 71.8063 32.8441C72.5839 33.616 73.4887 34.2196 74.5208 34.6687C75.5529 35.1179 76.6556 35.3425 77.8291 35.3425C79.0025 35.3425 80.1194 35.1179 81.1656 34.6687C82.1977 34.2196 83.1025 33.616 83.8801 32.8441C84.6435 32.0721 85.2515 31.1738 85.6897 30.1351C86.128 29.1105 86.3401 28.0157 86.3401 26.8648C86.3401 25.6857 86.128 24.5909 85.6897 23.5523C85.2515 22.5277 84.6435 21.6294 83.8801 20.8574C83.1167 20.0994 82.2118 19.4959 81.1656 19.0468C80.1194 18.5976 79.0167 18.373 77.8291 18.373C76.6698 18.373 75.567 18.5976 74.535 19.0468C73.4887 19.4959 72.5839 20.0994 71.8063 20.8574C71.0288 21.6153 70.4208 22.5136 69.9684 23.5523C69.516 24.5769 69.2898 25.6857 69.2898 26.8648ZM127.184 38.5848C127.184 39.0901 127.085 39.5392 126.902 39.9743C126.718 40.3954 126.463 40.7744 126.167 41.0832C125.855 41.3919 125.488 41.6446 125.064 41.813C124.64 41.9815 124.187 42.0797 123.707 42.0797C123.198 42.0797 122.731 41.9955 122.293 41.813C121.854 41.6446 121.473 41.3919 121.148 41.0832C120.822 40.7744 120.554 40.3954 120.356 39.9743C120.158 39.5532 120.059 39.0901 120.059 38.5848V26.4577C120.059 26.2893 120.073 26.1489 120.087 26.0647C120.045 24.998 119.819 24.0014 119.409 23.061C118.999 22.1206 118.461 21.3065 117.797 20.6188C117.132 19.917 116.341 19.3696 115.422 18.9766C114.503 18.5695 113.513 18.373 112.439 18.373C111.322 18.373 110.29 18.5695 109.357 18.9766C108.409 19.3836 107.618 19.931 106.939 20.6609C106.275 21.3767 105.751 22.2189 105.37 23.1874C104.988 24.1558 104.79 25.1945 104.79 26.3033V38.5848C104.79 39.0901 104.705 39.5392 104.521 39.9743C104.352 40.3954 104.097 40.7744 103.786 41.0832C103.475 41.3919 103.093 41.6446 102.669 41.813C102.245 41.9815 101.793 42.0797 101.312 42.0797C100.831 42.0797 100.365 41.9955 99.9407 41.813C99.5025 41.6446 99.1207 41.3919 98.7814 41.0832C98.4421 40.7744 98.1735 40.3954 97.9756 39.9743C97.7776 39.5532 97.6787 39.0901 97.6787 38.5848V26.4577V26.3314V26.3033C97.6787 24.212 98.0604 22.275 98.8097 20.4503C99.559 18.6397 100.605 17.0537 101.934 15.6922C103.263 14.3307 104.818 13.264 106.628 12.4779C108.438 11.6919 110.375 11.2989 112.453 11.2989C114.559 11.2989 116.496 11.6919 118.292 12.4779C120.087 13.264 121.642 14.3307 122.957 15.6922C124.272 17.0537 125.304 18.6397 126.053 20.4503C126.803 22.261 127.184 24.212 127.184 26.3033V26.3314V26.4577V38.5848ZM162.685 26.8227V26.9911C162.656 28.4087 162.473 29.7702 162.091 31.0755C161.723 32.3949 161.186 33.616 160.493 34.753C159.801 35.8899 158.981 36.9285 158.033 37.8689C157.086 38.8093 156.026 39.6094 154.866 40.2831C153.707 40.9568 152.463 41.4762 151.148 41.8411C149.819 42.206 148.448 42.3885 147.034 42.3885C144.871 42.3885 142.835 41.9815 140.941 41.1674C139.046 40.3533 137.392 39.2444 135.978 37.8268C134.564 36.4092 133.448 34.767 132.628 32.8721C131.808 30.9773 131.398 28.9702 131.398 26.8507C131.398 24.7032 131.808 22.6821 132.628 20.7872C133.448 18.8924 134.564 17.2502 135.978 15.8466C137.392 14.443 139.046 13.3341 140.941 12.52C142.835 11.706 144.857 11.2989 147.034 11.2989C148.603 11.2989 150.116 11.5235 151.544 11.9726C152.972 12.4218 154.315 13.0394 155.559 13.8394V3.69145C155.559 3.17212 155.644 2.68086 155.828 2.24575C155.997 1.7966 156.252 1.40359 156.563 1.06673C156.874 0.729868 157.256 0.463185 157.68 0.280718C158.104 0.0982512 158.585 0 159.108 0C159.617 0 160.083 0.0982512 160.522 0.280718C160.96 0.463185 161.342 0.729868 161.653 1.06673C161.964 1.40359 162.218 1.7966 162.402 2.24575C162.586 2.6949 162.685 3.17212 162.685 3.69145V26.8227V26.8227ZM155.573 26.8648C155.573 25.6857 155.347 24.5909 154.895 23.5523C154.442 22.5277 153.834 21.6294 153.057 20.8574C152.279 20.0994 151.374 19.4959 150.342 19.0468C149.31 18.5976 148.207 18.373 147.034 18.373C145.846 18.373 144.744 18.5976 143.726 19.0468C142.694 19.4959 141.789 20.0994 141.011 20.8574C140.234 21.6153 139.626 22.5136 139.188 23.5523C138.749 24.5909 138.537 25.6857 138.537 26.8648C138.537 28.0157 138.749 29.1105 139.188 30.1351C139.626 31.1738 140.22 32.0721 140.997 32.8441C141.761 33.616 142.665 34.2196 143.712 34.6687C144.758 35.1179 145.861 35.3425 147.048 35.3425C148.236 35.3425 149.339 35.1179 150.356 34.6687C151.389 34.2196 152.293 33.616 153.071 32.8441C153.849 32.0721 154.456 31.1738 154.909 30.1351C155.347 29.0965 155.573 28.0157 155.573 26.8648ZM167.718 26.8648C167.718 24.7173 168.128 22.6961 168.962 20.8153C169.796 18.9345 170.913 17.2923 172.341 15.8746C173.769 14.457 175.423 13.3482 177.317 12.5341C179.212 11.72 181.234 11.313 183.368 11.313C185.532 11.313 187.567 11.72 189.462 12.5341C191.356 13.3482 193.01 14.457 194.424 15.8746C195.838 17.2923 196.955 18.9345 197.775 20.8153C198.595 22.6961 199.005 24.7032 199.005 26.8648V38.4023C199.005 38.9076 198.906 39.3708 198.722 39.8059C198.538 40.241 198.284 40.62 197.945 40.9428C197.619 41.2656 197.224 41.5323 196.785 41.7288C196.333 41.9253 195.866 42.0236 195.357 42.0236C194.509 42.0236 193.788 41.7709 193.194 41.2797C192.6 40.7744 192.205 40.1568 192.007 39.3848C190.763 40.3252 189.405 41.0551 187.949 41.6025C186.493 42.1499 184.966 42.4166 183.368 42.4166C181.219 42.4166 179.212 42.0095 177.317 41.1954C175.423 40.3814 173.769 39.2725 172.341 37.8549C170.913 36.4373 169.796 34.7951 168.962 32.9002C168.128 30.9913 167.718 28.9842 167.718 26.8648ZM174.829 26.8648C174.829 28.0157 175.055 29.1105 175.508 30.1351C175.96 31.1738 176.568 32.0721 177.346 32.8441C178.123 33.616 179.028 34.2196 180.06 34.6687C181.092 35.1179 182.195 35.3425 183.368 35.3425C184.556 35.3425 185.659 35.1179 186.705 34.6687C187.737 34.2196 188.642 33.616 189.419 32.8441C190.183 32.0721 190.791 31.1738 191.229 30.1351C191.667 29.1105 191.879 28.0157 191.879 26.8648C191.879 25.6857 191.667 24.5909 191.229 23.5523C190.791 22.5277 190.183 21.6294 189.419 20.8574C188.656 20.0994 187.751 19.4959 186.705 19.0468C185.659 18.5976 184.556 18.373 183.368 18.373C182.209 18.373 181.106 18.5976 180.074 19.0468C179.028 19.4959 178.123 20.0994 177.346 20.8574C176.568 21.6153 175.96 22.5136 175.508 23.5523C175.055 24.5769 174.829 25.6857 174.829 26.8648ZM207.36 12.0709C208.449 12.0709 209.453 12.4358 210.344 13.1797C211.234 13.9236 211.687 14.8781 211.687 16.0431V27.8332C211.687 28.8298 211.87 29.7702 212.238 30.6404C212.606 31.5107 213.129 32.2686 213.779 32.9283C214.429 33.588 215.207 34.1073 216.112 34.4863C217.002 34.8793 217.978 35.0758 219.038 35.0758C219.957 35.0758 220.862 34.9073 221.767 34.5565C222.658 34.2056 223.449 33.7283 224.128 33.1248C224.807 32.5212 225.358 31.7914 225.768 30.9352C226.178 30.093 226.39 29.1667 226.39 28.1701V16.2396C226.39 15.1167 226.8 14.1342 227.606 13.3061C228.412 12.4779 229.43 12.0709 230.66 12.0709C231.791 12.0709 232.809 12.4499 233.685 13.2078C234.562 13.9657 235 14.9202 235 16.0431V49.5328C235 50.6557 234.562 51.6241 233.685 52.3961C232.809 53.1821 231.805 53.5751 230.66 53.5751C229.571 53.5751 228.581 53.1821 227.705 52.3961C226.828 51.6101 226.39 50.5855 226.39 49.3363V41.8411C225.386 42.4446 224.241 42.8938 222.94 43.1745C221.654 43.4552 220.353 43.5956 219.038 43.5956C216.889 43.5956 214.854 43.1885 212.931 42.3604C211.008 41.5323 209.311 40.4094 207.841 38.9778C206.371 37.5461 205.211 35.8337 204.363 33.8687C203.515 31.8896 203.077 29.7281 203.077 27.3841V16.2396C203.077 15.1167 203.487 14.1342 204.292 13.3061C205.112 12.4779 206.13 12.0709 207.36 12.0709Z" fill="#37B44C"/>
</svg>
